<svg width="969" height="139" viewBox="0 0 969 139" fill="none" xmlns="http://www.w3.org/2000/svg">
<path d="M935.347 139C930.263 139 925.436 138.25 920.865 136.749C916.294 135.295 912.679 133.677 910.02 131.895L915.618 118.248C917.95 120.031 920.748 121.531 924.013 122.751C927.278 124.017 930.45 124.65 933.528 124.65C936.327 124.65 939.265 124.017 942.344 122.751C945.422 121.531 948.034 119.538 950.18 116.771C952.325 114.051 953.398 110.464 953.398 106.009V97.2156H951.369L954.168 90.3922V49.3112L949.97 41.8548H953.608V33.2728H969V105.164C969 110.933 968.114 115.927 966.341 120.148C964.616 124.415 962.19 127.933 959.065 130.699C955.987 133.513 952.419 135.6 948.361 136.96C944.303 138.32 939.965 139 935.347 139ZM933.528 107.838C929.89 107.838 926.322 107.017 922.824 105.376C919.326 103.687 916.154 101.249 913.309 98.0597C910.51 94.8239 908.271 90.8612 906.592 86.1716C904.913 81.4351 904.074 76.0186 904.074 69.9221C904.074 61.7621 905.519 54.8684 908.411 49.2409C911.35 43.6134 915.104 39.3693 919.675 36.5086C924.293 33.601 929.121 32.1473 934.158 32.1473C939.662 32.1473 944.559 33.7652 948.85 37.001C953.142 40.1899 956.477 44.5747 958.855 50.1554C961.281 55.736 962.493 62.0904 962.493 69.2186C962.493 76.4875 961.211 83.0295 958.645 88.8446C956.127 94.6597 952.675 99.279 948.291 102.702C943.906 106.126 938.986 107.838 933.528 107.838ZM937.166 93.5577C940.385 93.5577 943.253 92.526 945.772 90.4625C948.337 88.3991 950.343 85.5619 951.789 81.9509C953.235 78.3399 953.958 74.1662 953.958 69.4297C953.958 64.74 953.235 60.6835 951.789 57.2601C950.343 53.7898 948.361 51.1167 945.842 49.2409C943.37 47.3181 940.548 46.3568 937.376 46.3568C934.111 46.3568 931.196 47.3416 928.631 49.3112C926.112 51.234 924.107 53.9305 922.614 57.4008C921.168 60.8711 920.445 64.9511 920.445 69.6407C920.445 74.2365 921.168 78.3399 922.614 81.9509C924.06 85.515 926.042 88.3522 928.561 90.4625C931.08 92.526 933.948 93.5577 937.166 93.5577Z" fill="url(#paint0_linear_8_593)"/>
<path d="M831.311 108.33V33.2728H847.473V42.7692H850.411L845.024 49.1705C846.33 44.2465 849.175 40.1899 853.56 37.001C857.991 33.7652 863.238 32.1473 869.302 32.1473C876.764 32.1473 882.641 34.6562 886.932 39.6741C891.224 44.692 893.369 51.3981 893.369 59.7925V108.33H876.858V62.5359C876.858 57.7056 875.598 53.8602 873.08 50.9995C870.561 48.0919 867.133 46.6382 862.795 46.6382C859.903 46.6382 857.338 47.2947 855.099 48.6078C852.86 49.9209 851.088 51.7733 849.782 54.165C848.476 56.5567 847.823 59.3704 847.823 62.6063V108.33H831.311Z" fill="url(#paint1_linear_8_593)"/>
<path d="M801.157 108.33V33.2728H817.668V108.33H801.157ZM778.698 47.7637V33.2728H817.668V47.7637H778.698ZM809.622 22.7915C806.544 22.7915 803.932 21.7363 801.786 19.626C799.641 17.4688 798.568 14.8192 798.568 11.6771C798.568 8.53509 799.641 5.90891 801.786 3.79858C803.932 1.64136 806.544 0.562753 809.622 0.562753C812.747 0.562753 815.359 1.64136 817.458 3.79858C819.604 5.90891 820.677 8.53509 820.677 11.6771C820.677 14.8192 819.604 17.4688 817.458 19.626C815.359 21.7363 812.747 22.7915 809.622 22.7915Z" fill="url(#paint2_linear_8_593)"/>
<path d="M746.445 109.455C741.081 109.455 736.3 108.353 732.102 106.149C727.904 103.945 724.593 100.827 722.167 96.7935C719.789 92.7605 718.599 88.0005 718.599 82.5137V10.3406H735.111V81.9509C735.111 85.8902 736.37 89.0088 738.889 91.3067C741.454 93.6046 744.602 94.7535 748.334 94.7535C750.993 94.7535 753.628 94.1673 756.24 92.9949C758.898 91.8225 761.207 90.3922 763.166 88.7039L768.973 102.843C765.848 104.813 762.303 106.407 758.339 107.627C754.374 108.846 750.409 109.455 746.445 109.455ZM701.458 47.7637V33.2728H764.635V47.7637H701.458Z" fill="url(#paint3_linear_8_593)"/>
<path d="M682.778 109.455C677.181 109.455 672.26 108.33 668.015 106.079C663.818 103.781 660.529 100.616 658.15 96.5825C655.818 92.5025 654.652 87.8129 654.652 82.5137V0H671.164V81.6695C671.164 85.4681 672.353 88.6102 674.732 91.0956C677.157 93.5342 680.399 94.7535 684.457 94.7535C687.162 94.7535 689.867 94.1908 692.573 93.0653C695.325 91.9398 697.727 90.5563 699.779 88.915L705.656 102.984C702.484 104.907 698.869 106.478 694.812 107.697C690.8 108.869 686.789 109.455 682.778 109.455Z" fill="url(#paint4_linear_8_593)"/>
<path d="M601.06 109.455C595.789 109.455 591.195 108.307 587.277 106.009C583.406 103.711 580.397 100.498 578.252 96.3715C576.106 92.2446 575.033 87.3909 575.033 81.8102V33.2728H591.545V80.4737C591.545 84.7881 592.758 88.2584 595.183 90.8846C597.655 93.4639 600.943 94.777 605.048 94.8239C607.893 94.8708 610.388 94.308 612.534 93.1356C614.726 91.9163 616.429 90.2281 617.641 88.0708C618.854 85.9136 619.46 83.3812 619.46 80.4737V33.2728H635.972V86.1716C635.972 87.8598 636.672 89.5246 638.071 91.166C639.517 92.8074 641.429 94.1204 643.808 95.1053L637.931 109.455C633.5 107.861 629.768 105.774 626.737 103.195C623.752 100.616 622.259 98.0128 622.259 95.3866L626.877 99.0445H618.411L626.387 93.8391C623.682 98.7163 620.02 102.538 615.402 105.305C610.785 108.072 606.004 109.455 601.06 109.455Z" fill="url(#paint5_linear_8_593)"/>
<path d="M534.384 109.455C529.487 109.455 524.939 108.658 520.741 107.064C516.544 105.422 512.929 103.242 509.897 100.522C506.865 97.8018 504.673 94.777 503.32 91.4474L517.383 85.6088C518.689 88.0005 520.858 90.2515 523.89 92.3618C526.921 94.4253 530.63 95.457 535.014 95.457C537.439 95.457 539.702 95.1053 541.8 94.4018C543.899 93.6984 545.602 92.7136 546.908 91.4474C548.214 90.1812 548.867 88.6805 548.867 86.9453C548.867 84.7881 547.817 83.053 545.718 81.7399C543.666 80.4268 541.008 79.2778 537.743 78.293C534.524 77.3082 531.073 76.2765 527.388 75.1979C523.75 74.1193 520.298 72.7358 517.033 71.0476C513.815 69.3593 511.156 67.1552 509.057 64.4352C507.005 61.6684 505.979 58.1511 505.979 53.8836C505.979 49.2409 507.262 45.3016 509.827 42.0658C512.392 38.83 515.774 36.3679 519.972 34.6797C524.216 32.9914 528.857 32.1473 533.895 32.1473C540.378 32.1473 546.162 33.5776 551.246 36.4383C556.376 39.252 560.108 43.0272 562.44 47.7637L548.447 53.6022C547.234 51.6326 545.415 49.8974 542.99 48.3968C540.564 46.8492 537.439 46.0754 533.615 46.0754C530.35 46.0754 527.458 46.7319 524.939 48.045C522.467 49.3581 521.231 51.3043 521.231 53.8836C521.231 56.0877 522.257 57.8698 524.31 59.2298C526.408 60.5428 529.09 61.6684 532.355 62.6063C535.62 63.5442 539.072 64.529 542.71 65.5607C546.395 66.5924 549.87 67.9055 553.135 69.5C556.4 71.0476 559.058 73.1344 561.11 75.7606C563.163 78.3399 564.189 81.7399 564.189 85.9605C564.189 90.6501 562.836 94.777 560.131 98.3411C557.426 101.858 553.811 104.602 549.287 106.571C544.762 108.494 539.795 109.455 534.384 109.455Z" fill="url(#paint6_linear_8_593)"/>
<path d="M429.998 108.33V33.2728H446.16V42.7692H449.098L443.711 49.1705C445.017 44.2465 447.862 40.1899 452.247 37.001C456.678 33.7652 461.925 32.1473 467.989 32.1473C475.451 32.1473 481.328 34.6562 485.619 39.6741C489.911 44.692 492.056 51.3981 492.056 59.7925V108.33H475.545V62.5359C475.545 57.7056 474.285 53.8602 471.767 50.9995C469.248 48.0919 465.82 46.6382 461.482 46.6382C458.59 46.6382 456.025 47.2947 453.786 48.6078C451.547 49.9209 449.775 51.7733 448.469 54.165C447.163 56.5567 446.51 59.3704 446.51 62.6063V108.33H429.998Z" fill="url(#paint7_linear_8_593)"/>
<path d="M385.291 109.455C378.528 109.455 372.628 107.838 367.59 104.602C362.553 101.366 358.635 96.8639 355.836 91.0956C353.038 85.2805 351.639 78.5275 351.639 70.8365C351.639 63.0987 353.038 56.3222 355.836 50.5071C358.635 44.692 362.553 40.1665 367.59 36.9307C372.628 33.6948 378.528 32.0769 385.291 32.0769C392.054 32.0769 397.955 33.6948 402.992 36.9307C408.029 40.1665 411.947 44.692 414.746 50.5071C417.545 56.3222 418.944 63.0987 418.944 70.8365C418.944 78.5275 417.545 85.2805 414.746 91.0956C411.947 96.8639 408.029 101.366 402.992 104.602C397.955 107.838 392.054 109.455 385.291 109.455ZM385.291 94.7535C388.929 94.7535 392.054 93.7687 394.666 91.7991C397.325 89.8295 399.354 87.0626 400.753 83.4985C402.152 79.8875 402.852 75.6668 402.852 70.8365C402.852 65.9124 402.152 61.6684 400.753 58.1042C399.354 54.4933 397.325 51.7029 394.666 49.7333C392.054 47.7168 388.929 46.7085 385.291 46.7085C381.653 46.7085 378.505 47.7168 375.846 49.7333C373.234 51.7029 371.228 54.4933 369.829 58.1042C368.43 61.6684 367.73 65.9124 367.73 70.8365C367.73 75.6668 368.43 79.8875 369.829 83.4985C371.228 87.0626 373.234 89.8295 375.846 91.7991C378.505 93.7687 381.653 94.7535 385.291 94.7535Z" fill="url(#paint8_linear_8_593)"/>
<path d="M318.336 109.174C310.873 109.174 304.296 107.556 298.606 104.32C292.962 101.038 288.531 96.4887 285.313 90.6736C282.141 84.8116 280.555 78.0585 280.555 70.4145C280.555 62.8642 282.118 56.205 285.243 50.4367C288.368 44.6685 292.706 40.1665 298.256 36.9307C303.853 33.6948 310.313 32.0769 317.636 32.0769C321.741 32.0769 326.032 32.8273 330.509 34.3279C334.987 35.7817 338.789 37.7279 341.914 40.1665L335.757 53.6726C333.751 51.7029 331.139 50.0616 327.921 48.7485C324.702 47.3885 321.531 46.7085 318.406 46.7085C314.161 46.7085 310.407 47.7168 307.142 49.7333C303.923 51.7498 301.381 54.5401 299.515 58.1042C297.696 61.6684 296.787 65.8187 296.787 70.5552C296.787 75.2448 297.696 79.3951 299.515 83.0061C301.381 86.6171 303.947 89.4308 307.211 91.4474C310.476 93.4639 314.255 94.4722 318.546 94.4722C321.951 94.4722 325.262 93.8156 328.481 92.5025C331.746 91.1425 334.264 89.5012 336.037 87.5784L342.123 101.366C339.092 103.664 335.384 105.54 330.999 106.993C326.661 108.447 322.44 109.174 318.336 109.174Z" fill="url(#paint9_linear_8_593)"/>
<path d="M187.643 108.33L158.748 33.2728H176.799L189.392 71.6807L195.199 89.9701H195.759L201.566 71.6807L214.299 33.2728H232.21L203.315 108.33H187.643Z" fill="url(#paint10_linear_8_593)"/>
<path d="M117.819 109.455C110.636 109.455 104.316 107.838 98.859 104.602C93.4484 101.366 89.2273 96.8404 86.1955 91.0253C83.1638 85.2102 81.6479 78.4806 81.6479 70.8365C81.6479 63.0987 83.0705 56.3456 85.9157 50.5774C88.8075 44.7623 92.8421 40.2368 98.0194 37.001C103.197 33.7652 109.214 32.1473 116.07 32.1473C122.414 32.1473 127.987 33.601 132.791 36.5086C137.642 39.4162 141.397 43.4961 144.056 48.7485C146.761 53.9539 148.114 60.0035 148.114 66.8973C148.114 68.5386 148.044 70.2738 147.904 72.1027C147.764 73.8848 147.531 75.4324 147.204 76.7454H94.5912V65.0683H132.372C132.372 61.3166 131.649 58.0105 130.203 55.1498C128.804 52.2891 126.845 50.0616 124.326 48.4671C121.854 46.8726 118.985 46.0754 115.72 46.0754C111.942 46.0754 108.607 47.1071 105.715 49.1705C102.87 51.234 100.631 54.0946 98.9989 57.7525C97.4131 61.4104 96.6201 65.6545 96.6201 70.4848C96.6201 75.4558 97.5064 79.8171 99.2788 83.5688C101.098 87.2736 103.617 90.1577 106.835 92.2212C110.053 94.2846 113.785 95.3163 118.029 95.3163C121.247 95.3163 124.466 94.7301 127.684 93.5577C130.949 92.3853 133.724 90.8377 136.01 88.915L141.467 102.21C138.622 104.32 135.03 106.055 130.693 107.415C126.355 108.775 122.064 109.455 117.819 109.455Z" fill="url(#paint11_linear_8_593)"/>
<path d="M64.5767 109.455C60.7053 107.72 57.557 105.587 55.1316 103.054C52.7528 100.475 51.3768 97.9425 51.0037 95.457L52.8927 96.9342H47.2956L50.2341 88.3522V48.6781L47.1557 41.081H48.6949V0H65.1364V85.1867C65.1364 87.3909 65.6028 89.4074 66.5357 91.2363C67.5152 93.0653 68.7978 94.3549 70.3837 95.1053L64.5767 109.455ZM28.8251 109.455C23.0414 109.455 17.9807 107.861 13.643 104.672C9.3052 101.483 5.94693 97.0046 3.56816 91.2363C1.18939 85.4212 0 78.5744 0 70.6958C0 62.9111 1.18939 56.1112 3.56816 50.2961C5.99357 44.4809 9.37516 40.0024 13.7129 36.8603C18.0973 33.6714 23.228 32.0769 29.105 32.0769C34.842 32.0769 39.8328 33.6714 44.0773 36.8603C48.3684 40.0493 51.7033 44.5513 54.0821 50.3664C56.4609 56.1346 57.6503 62.9111 57.6503 70.6958C57.6503 78.5275 56.4375 85.3509 54.0121 91.166C51.6334 96.9342 48.2984 101.436 44.0073 104.672C39.7162 107.861 34.6555 109.455 28.8251 109.455ZM32.7431 95.1053C36.148 95.1053 39.1098 94.097 41.6285 92.0805C44.1939 90.017 46.1762 87.1798 47.5755 83.5688C48.9747 79.9109 49.6744 75.6199 49.6744 70.6958C49.6744 65.7718 48.9747 61.5042 47.5755 57.8932C46.1762 54.2353 44.2172 51.4216 41.6985 49.4519C39.2264 47.4354 36.3346 46.4271 33.023 46.4271C29.6181 46.4271 26.6329 47.4354 24.0676 49.4519C21.5489 51.4685 19.5899 54.3057 18.1906 57.9636C16.7913 61.5746 16.0917 65.8187 16.0917 70.6958C16.0917 75.6199 16.768 79.9109 18.1207 83.5688C19.5199 87.1798 21.4556 90.017 23.9277 92.0805C26.4464 94.097 29.3848 95.1053 32.7431 95.1053Z" fill="url(#paint12_linear_8_593)"/>
<defs>
<linearGradient id="paint0_linear_8_593" x1="0" y1="69.5" x2="969" y2="69.5" gradientUnits="userSpaceOnUse">
<stop stop-color="#129A8E"/>
<stop offset="1" stop-color="#19CA5E"/>
</linearGradient>
<linearGradient id="paint1_linear_8_593" x1="0" y1="69.5" x2="969" y2="69.5" gradientUnits="userSpaceOnUse">
<stop stop-color="#129A8E"/>
<stop offset="1" stop-color="#19CA5E"/>
</linearGradient>
<linearGradient id="paint2_linear_8_593" x1="0" y1="69.5" x2="969" y2="69.5" gradientUnits="userSpaceOnUse">
<stop stop-color="#129A8E"/>
<stop offset="1" stop-color="#19CA5E"/>
</linearGradient>
<linearGradient id="paint3_linear_8_593" x1="0" y1="69.5" x2="969" y2="69.5" gradientUnits="userSpaceOnUse">
<stop stop-color="#129A8E"/>
<stop offset="1" stop-color="#19CA5E"/>
</linearGradient>
<linearGradient id="paint4_linear_8_593" x1="0" y1="69.5" x2="969" y2="69.5" gradientUnits="userSpaceOnUse">
<stop stop-color="#129A8E"/>
<stop offset="1" stop-color="#19CA5E"/>
</linearGradient>
<linearGradient id="paint5_linear_8_593" x1="0" y1="69.5" x2="969" y2="69.5" gradientUnits="userSpaceOnUse">
<stop stop-color="#129A8E"/>
<stop offset="1" stop-color="#19CA5E"/>
</linearGradient>
<linearGradient id="paint6_linear_8_593" x1="0" y1="69.5" x2="969" y2="69.5" gradientUnits="userSpaceOnUse">
<stop stop-color="#129A8E"/>
<stop offset="1" stop-color="#19CA5E"/>
</linearGradient>
<linearGradient id="paint7_linear_8_593" x1="0" y1="69.5" x2="969" y2="69.5" gradientUnits="userSpaceOnUse">
<stop stop-color="#129A8E"/>
<stop offset="1" stop-color="#19CA5E"/>
</linearGradient>
<linearGradient id="paint8_linear_8_593" x1="0" y1="69.5" x2="969" y2="69.5" gradientUnits="userSpaceOnUse">
<stop stop-color="#129A8E"/>
<stop offset="1" stop-color="#19CA5E"/>
</linearGradient>
<linearGradient id="paint9_linear_8_593" x1="0" y1="69.5" x2="969" y2="69.5" gradientUnits="userSpaceOnUse">
<stop stop-color="#129A8E"/>
<stop offset="1" stop-color="#19CA5E"/>
</linearGradient>
<linearGradient id="paint10_linear_8_593" x1="0" y1="69.5" x2="969" y2="69.5" gradientUnits="userSpaceOnUse">
<stop stop-color="#129A8E"/>
<stop offset="1" stop-color="#19CA5E"/>
</linearGradient>
<linearGradient id="paint11_linear_8_593" x1="0" y1="69.5" x2="969" y2="69.5" gradientUnits="userSpaceOnUse">
<stop stop-color="#129A8E"/>
<stop offset="1" stop-color="#19CA5E"/>
</linearGradient>
<linearGradient id="paint12_linear_8_593" x1="0" y1="69.5" x2="969" y2="69.5" gradientUnits="userSpaceOnUse">
<stop stop-color="#129A8E"/>
<stop offset="1" stop-color="#19CA5E"/>
</linearGradient>
</defs>
</svg>
