<svg width="1051" height="132" viewBox="0 0 1051 132" fill="none" xmlns="http://www.w3.org/2000/svg">
<path d="M1001.99 39.0278V11.1984H1004.48L1011.05 24.0369H1011.2L1017.77 11.1984H1020.26V39.0278H1016.94V24.7166L1017.02 19.0903H1016.86L1011.69 29.2479H1010.56L1005.39 19.0903H1005.23L1005.31 24.7166V39.0278H1001.99ZM1027.44 39.0278V35.9315H1033.63C1035.07 35.9315 1036.22 35.5098 1037.1 34.6665C1037.99 33.8232 1038.43 32.6463 1038.43 31.1359C1038.43 29.6255 1037.96 28.4549 1037.03 27.6242C1036.1 26.7935 1034.86 26.3781 1033.33 26.3781H1027.06V23.3573H1032.31C1033.15 23.3573 1033.9 23.1559 1034.56 22.7531C1035.21 22.3503 1035.72 21.7965 1036.08 21.0916C1036.46 20.3868 1036.65 19.5812 1036.65 18.675C1036.65 17.2401 1036.23 16.1513 1035.39 15.4087C1034.56 14.6661 1033.47 14.2948 1032.12 14.2948H1027.06V11.1984H1032.01C1033.62 11.1984 1035.01 11.5005 1036.2 12.1047C1037.39 12.6962 1038.31 13.5207 1038.95 14.578C1039.61 15.6353 1039.94 16.8499 1039.94 18.2218C1039.94 19.254 1039.75 20.2231 1039.39 21.1294C1039.02 22.0356 1038.54 22.816 1037.93 23.4705C1037.33 24.1251 1036.66 24.5908 1035.93 24.8677L1035.97 24.0369C1037.15 24.339 1038.18 24.8236 1039.05 25.4907C1039.92 26.1578 1040.59 26.9886 1041.07 27.9829C1041.55 28.9647 1041.79 30.0912 1041.79 31.3625C1041.79 32.8603 1041.44 34.1882 1040.75 35.3462C1040.07 36.4916 1039.11 37.3915 1037.88 38.0461C1036.66 38.7006 1035.23 39.0278 1033.59 39.0278H1027.44ZM1024.42 39.0278V11.1984H1027.74V39.0278H1024.42Z" fill="#181819"/>
<path d="M962.938 131.25C958.396 131.25 954.083 130.583 950 129.25C945.917 127.958 942.688 126.521 940.312 124.938L945.312 112.812C947.396 114.396 949.896 115.729 952.812 116.812C955.729 117.938 958.562 118.5 961.312 118.5C963.812 118.5 966.438 117.938 969.188 116.812C971.938 115.729 974.271 113.958 976.188 111.5C978.104 109.083 979.062 105.896 979.062 101.938V94.125H977.25L979.75 88.0625V51.5625L976 44.9375H979.25V37.3125H993V101.188C993 106.312 992.208 110.75 990.625 114.5C989.083 118.292 986.917 121.417 984.125 123.875C981.375 126.375 978.188 128.229 974.562 129.438C970.938 130.646 967.062 131.25 962.938 131.25ZM961.312 103.562C958.062 103.562 954.875 102.833 951.75 101.375C948.625 99.875 945.792 97.7083 943.25 94.875C940.75 92 938.75 88.4792 937.25 84.3125C935.75 80.1042 935 75.2917 935 69.875C935 62.625 936.292 56.5 938.875 51.5C941.5 46.5 944.854 42.7292 948.938 40.1875C953.062 37.6042 957.375 36.3125 961.875 36.3125C966.792 36.3125 971.167 37.75 975 40.625C978.833 43.4583 981.812 47.3542 983.938 52.3125C986.104 57.2708 987.188 62.9167 987.188 69.25C987.188 75.7083 986.042 81.5208 983.75 86.6875C981.5 91.8542 978.417 95.9583 974.5 99C970.583 102.042 966.188 103.562 961.312 103.562ZM964.562 90.875C967.438 90.875 970 89.9583 972.25 88.125C974.542 86.2917 976.333 83.7708 977.625 80.5625C978.917 77.3542 979.562 73.6458 979.562 69.4375C979.562 65.2708 978.917 61.6667 977.625 58.625C976.333 55.5417 974.562 53.1667 972.312 51.5C970.104 49.7917 967.583 48.9375 964.75 48.9375C961.833 48.9375 959.229 49.8125 956.938 51.5625C954.688 53.2708 952.896 55.6667 951.562 58.75C950.271 61.8333 949.625 65.4583 949.625 69.625C949.625 73.7083 950.271 77.3542 951.562 80.5625C952.854 83.7292 954.625 86.25 956.875 88.125C959.125 89.9583 961.688 90.875 964.562 90.875Z" fill="#181819"/>
<path d="M870 104V37.3125H884.438V45.75H887.062L882.25 51.4375C883.417 47.0625 885.958 43.4583 889.875 40.625C893.833 37.75 898.521 36.3125 903.938 36.3125C910.604 36.3125 915.854 38.5417 919.688 43C923.521 47.4583 925.438 53.4167 925.438 60.875V104H910.688V63.3125C910.688 59.0208 909.562 55.6042 907.312 53.0625C905.062 50.4792 902 49.1875 898.125 49.1875C895.542 49.1875 893.25 49.7708 891.25 50.9375C889.25 52.1042 887.667 53.75 886.5 55.875C885.333 58 884.75 60.5 884.75 63.375V104H870Z" fill="#181819"/>
<path d="M843.062 104V37.3125H857.812V104H843.062ZM823 50.1875V37.3125H857.812V50.1875H823ZM850.625 28C847.875 28 845.542 27.0625 843.625 25.1875C841.708 23.2708 840.75 20.9167 840.75 18.125C840.75 15.3333 841.708 13 843.625 11.125C845.542 9.20833 847.875 8.25 850.625 8.25C853.417 8.25 855.75 9.20833 857.625 11.125C859.542 13 860.5 15.3333 860.5 18.125C860.5 20.9167 859.542 23.2708 857.625 25.1875C855.75 27.0625 853.417 28 850.625 28Z" fill="#181819"/>
<path d="M794.188 105C789.396 105 785.125 104.021 781.375 102.062C777.625 100.104 774.667 97.3333 772.5 93.75C770.375 90.1667 769.312 85.9375 769.312 81.0625V16.9375H784.062V80.5625C784.062 84.0625 785.188 86.8333 787.438 88.875C789.729 90.9167 792.542 91.9375 795.875 91.9375C798.25 91.9375 800.604 91.4167 802.938 90.375C805.312 89.3333 807.375 88.0625 809.125 86.5625L814.312 99.125C811.521 100.875 808.354 102.292 804.812 103.375C801.271 104.458 797.729 105 794.188 105ZM754 50.1875V37.3125H810.438V50.1875H754Z" fill="#181819"/>
<path d="M737.312 105C732.312 105 727.917 104 724.125 102C720.375 99.9583 717.438 97.1458 715.312 93.5625C713.229 89.9375 712.188 85.7708 712.188 81.0625V7.75H726.938V80.3125C726.938 83.6875 728 86.4792 730.125 88.6875C732.292 90.8542 735.188 91.9375 738.812 91.9375C741.229 91.9375 743.646 91.4375 746.062 90.4375C748.521 89.4375 750.667 88.2083 752.5 86.75L757.75 99.25C754.917 100.958 751.688 102.354 748.062 103.438C744.479 104.479 740.896 105 737.312 105Z" fill="#181819"/>
<path d="M664.312 105C659.604 105 655.5 103.979 652 101.938C648.542 99.8958 645.854 97.0417 643.938 93.375C642.021 89.7083 641.062 85.3958 641.062 80.4375V37.3125H655.812V79.25C655.812 83.0833 656.896 86.1667 659.062 88.5C661.271 90.7917 664.208 91.9583 667.875 92C670.417 92.0417 672.646 91.5417 674.562 90.5C676.521 89.4167 678.042 87.9167 679.125 86C680.208 84.0833 680.75 81.8333 680.75 79.25V37.3125H695.5V84.3125C695.5 85.8125 696.125 87.2917 697.375 88.75C698.667 90.2083 700.375 91.375 702.5 92.25L697.25 105C693.292 103.583 689.958 101.729 687.25 99.4375C684.583 97.1458 683.25 94.8333 683.25 92.5L687.375 95.75H679.812L686.938 91.125C684.521 95.4583 681.25 98.8542 677.125 101.312C673 103.771 668.729 105 664.312 105Z" fill="#181819"/>
<path d="M604.75 105C600.375 105 596.312 104.292 592.562 102.875C588.812 101.417 585.583 99.4792 582.875 97.0625C580.167 94.6458 578.208 91.9583 577 89L589.562 83.8125C590.729 85.9375 592.667 87.9375 595.375 89.8125C598.083 91.6458 601.396 92.5625 605.312 92.5625C607.479 92.5625 609.5 92.25 611.375 91.625C613.25 91 614.771 90.125 615.938 89C617.104 87.875 617.688 86.5417 617.688 85C617.688 83.0833 616.75 81.5417 614.875 80.375C613.042 79.2083 610.667 78.1875 607.75 77.3125C604.875 76.4375 601.792 75.5208 598.5 74.5625C595.25 73.6042 592.167 72.375 589.25 70.875C586.375 69.375 584 67.4167 582.125 65C580.292 62.5417 579.375 59.4167 579.375 55.625C579.375 51.5 580.521 48 582.812 45.125C585.104 42.25 588.125 40.0625 591.875 38.5625C595.667 37.0625 599.812 36.3125 604.312 36.3125C610.104 36.3125 615.271 37.5833 619.812 40.125C624.396 42.625 627.729 45.9792 629.812 50.1875L617.312 55.375C616.229 53.625 614.604 52.0833 612.438 50.75C610.271 49.375 607.479 48.6875 604.062 48.6875C601.146 48.6875 598.562 49.2708 596.312 50.4375C594.104 51.6042 593 53.3333 593 55.625C593 57.5833 593.917 59.1667 595.75 60.375C597.625 61.5417 600.021 62.5417 602.938 63.375C605.854 64.2083 608.938 65.0833 612.188 66C615.479 66.9167 618.583 68.0833 621.5 69.5C624.417 70.875 626.792 72.7292 628.625 75.0625C630.458 77.3542 631.375 80.375 631.375 84.125C631.375 88.2917 630.167 91.9583 627.75 95.125C625.333 98.25 622.104 100.688 618.062 102.438C614.021 104.146 609.583 105 604.75 105Z" fill="#181819"/>
<path d="M511.5 104V37.3125H525.938V45.75H528.562L523.75 51.4375C524.917 47.0625 527.458 43.4583 531.375 40.625C535.333 37.75 540.021 36.3125 545.438 36.3125C552.104 36.3125 557.354 38.5417 561.188 43C565.021 47.4583 566.938 53.4167 566.938 60.875V104H552.188V63.3125C552.188 59.0208 551.062 55.6042 548.812 53.0625C546.562 50.4792 543.5 49.1875 539.625 49.1875C537.042 49.1875 534.75 49.7708 532.75 50.9375C530.75 52.1042 529.167 53.75 528 55.875C526.833 58 526.25 60.5 526.25 63.375V104H511.5Z" fill="#181819"/>
<path d="M471.562 105C465.521 105 460.25 103.562 455.75 100.688C451.25 97.8125 447.75 93.8125 445.25 88.6875C442.75 83.5208 441.5 77.5208 441.5 70.6875C441.5 63.8125 442.75 57.7917 445.25 52.625C447.75 47.4583 451.25 43.4375 455.75 40.5625C460.25 37.6875 465.521 36.25 471.562 36.25C477.604 36.25 482.875 37.6875 487.375 40.5625C491.875 43.4375 495.375 47.4583 497.875 52.625C500.375 57.7917 501.625 63.8125 501.625 70.6875C501.625 77.5208 500.375 83.5208 497.875 88.6875C495.375 93.8125 491.875 97.8125 487.375 100.688C482.875 103.562 477.604 105 471.562 105ZM471.562 91.9375C474.812 91.9375 477.604 91.0625 479.938 89.3125C482.312 87.5625 484.125 85.1042 485.375 81.9375C486.625 78.7292 487.25 74.9792 487.25 70.6875C487.25 66.3125 486.625 62.5417 485.375 59.375C484.125 56.1667 482.312 53.6875 479.938 51.9375C477.604 50.1458 474.812 49.25 471.562 49.25C468.312 49.25 465.5 50.1458 463.125 51.9375C460.792 53.6875 459 56.1667 457.75 59.375C456.5 62.5417 455.875 66.3125 455.875 70.6875C455.875 74.9792 456.5 78.7292 457.75 81.9375C459 85.1042 460.792 87.5625 463.125 89.3125C465.5 91.0625 468.312 91.9375 471.562 91.9375Z" fill="#181819"/>
<path d="M411.75 104.75C405.083 104.75 399.208 103.312 394.125 100.438C389.083 97.5208 385.125 93.4792 382.25 88.3125C379.417 83.1042 378 77.1042 378 70.3125C378 63.6042 379.396 57.6875 382.188 52.5625C384.979 47.4375 388.854 43.4375 393.812 40.5625C398.812 37.6875 404.583 36.25 411.125 36.25C414.792 36.25 418.625 36.9167 422.625 38.25C426.625 39.5417 430.021 41.2708 432.812 43.4375L427.312 55.4375C425.521 53.6875 423.188 52.2292 420.312 51.0625C417.438 49.8542 414.604 49.25 411.812 49.25C408.021 49.25 404.667 50.1458 401.75 51.9375C398.875 53.7292 396.604 56.2083 394.938 59.375C393.312 62.5417 392.5 66.2292 392.5 70.4375C392.5 74.6042 393.312 78.2917 394.938 81.5C396.604 84.7083 398.896 87.2083 401.812 89C404.729 90.7917 408.104 91.6875 411.938 91.6875C414.979 91.6875 417.938 91.1042 420.812 89.9375C423.729 88.7292 425.979 87.2708 427.562 85.5625L433 97.8125C430.292 99.8542 426.979 101.521 423.062 102.812C419.188 104.104 415.417 104.75 411.75 104.75Z" fill="#181819"/>
<path d="M295 104L269.188 37.3125H285.312L296.562 71.4375L301.75 87.6875H302.25L307.438 71.4375L318.812 37.3125H334.812L309 104H295Z" fill="#181819"/>
<path d="M232.625 105C226.208 105 220.562 103.562 215.688 100.688C210.854 97.8125 207.083 93.7917 204.375 88.625C201.667 83.4583 200.312 77.4792 200.312 70.6875C200.312 63.8125 201.583 57.8125 204.125 52.6875C206.708 47.5208 210.312 43.5 214.938 40.625C219.562 37.75 224.938 36.3125 231.062 36.3125C236.729 36.3125 241.708 37.6042 246 40.1875C250.333 42.7708 253.688 46.3958 256.062 51.0625C258.479 55.6875 259.688 61.0625 259.688 67.1875C259.688 68.6458 259.625 70.1875 259.5 71.8125C259.375 73.3958 259.167 74.7708 258.875 75.9375H211.875V65.5625H245.625C245.625 62.2292 244.979 59.2917 243.688 56.75C242.438 54.2083 240.688 52.2292 238.438 50.8125C236.229 49.3958 233.667 48.6875 230.75 48.6875C227.375 48.6875 224.396 49.6042 221.812 51.4375C219.271 53.2708 217.271 55.8125 215.812 59.0625C214.396 62.3125 213.688 66.0833 213.688 70.375C213.688 74.7917 214.479 78.6667 216.062 82C217.688 85.2917 219.938 87.8542 222.812 89.6875C225.688 91.5208 229.021 92.4375 232.812 92.4375C235.688 92.4375 238.562 91.9167 241.438 90.875C244.354 89.8333 246.833 88.4583 248.875 86.75L253.75 98.5625C251.208 100.438 248 101.979 244.125 103.188C240.25 104.396 236.417 105 232.625 105Z" fill="#181819"/>
<path d="M185.062 105C181.604 103.458 178.792 101.562 176.625 99.3125C174.5 97.0208 173.271 94.7708 172.938 92.5625L174.625 93.875H169.625L172.25 86.25V51L169.5 44.25H170.875V7.75H185.562V83.4375C185.562 85.3958 185.979 87.1875 186.812 88.8125C187.688 90.4375 188.833 91.5833 190.25 92.25L185.062 105ZM153.125 105C147.958 105 143.438 103.583 139.562 100.75C135.688 97.9167 132.688 93.9375 130.562 88.8125C128.438 83.6458 127.375 77.5625 127.375 70.5625C127.375 63.6458 128.438 57.6042 130.562 52.4375C132.729 47.2708 135.75 43.2917 139.625 40.5C143.542 37.6667 148.125 36.25 153.375 36.25C158.5 36.25 162.958 37.6667 166.75 40.5C170.583 43.3333 173.562 47.3333 175.688 52.5C177.812 57.625 178.875 63.6458 178.875 70.5625C178.875 77.5208 177.792 83.5833 175.625 88.75C173.5 93.875 170.521 97.875 166.688 100.75C162.854 103.583 158.333 105 153.125 105ZM156.625 92.25C159.667 92.25 162.312 91.3542 164.562 89.5625C166.854 87.7292 168.625 85.2083 169.875 82C171.125 78.75 171.75 74.9375 171.75 70.5625C171.75 66.1875 171.125 62.3958 169.875 59.1875C168.625 55.9375 166.875 53.4375 164.625 51.6875C162.417 49.8958 159.833 49 156.875 49C153.833 49 151.167 49.8958 148.875 51.6875C146.625 53.4792 144.875 56 143.625 59.25C142.375 62.4583 141.75 66.2292 141.75 70.5625C141.75 74.9375 142.354 78.75 143.562 82C144.812 85.2083 146.542 87.7292 148.75 89.5625C151 91.3542 153.625 92.25 156.625 92.25Z" fill="#181819"/>
<path d="M98 66C98 93.062 76.062 115 49 115C21.938 115 0 93.062 0 66C0 38.938 21.938 17 49 17C76.062 17 98 38.938 98 66ZM9.22072 66C9.22072 87.9695 27.0305 105.779 49 105.779C70.9695 105.779 88.7793 87.9695 88.7793 66C88.7793 44.0305 70.9695 26.2207 49 26.2207C27.0305 26.2207 9.22072 44.0305 9.22072 66Z" fill="url(#paint0_linear_7_557)"/>
<path d="M40 46L60.5 66.5L40 87" stroke="url(#paint1_linear_7_557)" stroke-width="6"/>
<defs>
<linearGradient id="paint0_linear_7_557" x1="3.23967e-07" y1="62.5" x2="98" y2="63.5" gradientUnits="userSpaceOnUse">
<stop stop-color="#129A8E"/>
<stop offset="1" stop-color="#19CA5E"/>
</linearGradient>
<linearGradient id="paint1_linear_7_557" x1="38.5" y1="67" x2="65.5" y2="67" gradientUnits="userSpaceOnUse">
<stop stop-color="#139E8B"/>
<stop offset="1" stop-color="#19C960"/>
</linearGradient>
</defs>
</svg>
