<svg width="222" height="28" viewBox="0 0 222 28" fill="none" xmlns="http://www.w3.org/2000/svg">
<path d="M211.647 8.1412V2.26287H212.173L213.561 4.97472H213.593L214.981 2.26287H215.507V8.1412H214.806V5.11829L214.822 3.92986H214.79L213.697 6.07541H213.458L212.365 3.92986H212.333L212.349 5.11829V8.1412H211.647ZM217.023 8.1412V7.48717H218.331C218.634 7.48717 218.879 7.3981 219.065 7.21997C219.251 7.04184 219.344 6.79325 219.344 6.47421C219.344 6.15517 219.246 5.90792 219.049 5.73244C218.852 5.55697 218.592 5.46923 218.267 5.46923H216.943V4.83115H218.052C218.23 4.83115 218.388 4.78861 218.526 4.70353C218.665 4.61846 218.772 4.50147 218.849 4.35259C218.929 4.2037 218.969 4.03355 218.969 3.84212C218.969 3.53903 218.88 3.30906 218.702 3.1522C218.526 2.99533 218.296 2.9169 218.012 2.9169H216.943V2.26287H217.988C218.328 2.26287 218.623 2.32668 218.873 2.45429C219.126 2.57925 219.32 2.75339 219.456 2.97672C219.594 3.20005 219.663 3.45661 219.663 3.74641C219.663 3.96442 219.624 4.16914 219.547 4.36056C219.47 4.55199 219.368 4.71683 219.24 4.85508C219.113 4.99333 218.972 5.0917 218.818 5.15019L218.826 4.97472C219.075 5.03853 219.292 5.14089 219.476 5.2818C219.659 5.42271 219.801 5.59818 219.902 5.80821C220.003 6.01559 220.054 6.25354 220.054 6.52207C220.054 6.83845 219.981 7.11894 219.834 7.36354C219.691 7.60548 219.489 7.79558 219.228 7.93383C218.97 8.07208 218.669 8.1412 218.323 8.1412H217.023ZM216.385 8.1412V2.26287H217.087V8.1412H216.385Z" fill="white"/>
<path d="M203.399 27.8588C202.439 27.8588 201.528 27.718 200.666 27.4364C199.803 27.1635 199.121 26.8599 198.62 26.5255L199.676 23.9643C200.116 24.2988 200.644 24.5804 201.26 24.8092C201.876 25.0469 202.475 25.1657 203.055 25.1657C203.584 25.1657 204.138 25.0469 204.719 24.8092C205.3 24.5804 205.793 24.2064 206.197 23.6871C206.602 23.1766 206.805 22.5033 206.805 21.6672V20.017H206.422L206.95 18.7364V11.0266L206.158 9.62727H206.844V8.01666H209.749V21.5088C209.749 22.5913 209.582 23.5287 209.247 24.3208C208.921 25.1217 208.464 25.7818 207.874 26.301C207.293 26.8291 206.62 27.2207 205.854 27.476C205.089 27.7312 204.27 27.8588 203.399 27.8588ZM203.055 22.0105C202.369 22.0105 201.696 21.8565 201.036 21.5484C200.376 21.2316 199.777 20.7739 199.24 20.1754C198.712 19.5682 198.29 18.8245 197.973 17.9443C197.656 17.0554 197.498 16.0389 197.498 14.8947C197.498 13.3634 197.77 12.0696 198.316 11.0134C198.871 9.95731 199.579 9.16081 200.442 8.62394C201.313 8.07827 202.224 7.80543 203.174 7.80543C204.213 7.80543 205.137 8.10907 205.947 8.71635C206.756 9.31483 207.386 10.1377 207.834 11.1851C208.292 12.2324 208.521 13.425 208.521 14.7627C208.521 16.1269 208.279 17.3547 207.795 18.446C207.32 19.5374 206.668 20.4043 205.841 21.0467C205.014 21.6892 204.085 22.0105 203.055 22.0105ZM203.742 19.3305C204.349 19.3305 204.891 19.1369 205.366 18.7496C205.85 18.3624 206.228 17.8299 206.501 17.1522C206.774 16.4746 206.91 15.6913 206.91 14.8023C206.91 13.9222 206.774 13.1609 206.501 12.5184C206.228 11.8672 205.854 11.3655 205.379 11.0134C204.913 10.6526 204.38 10.4722 203.782 10.4722C203.165 10.4722 202.615 10.657 202.131 11.0266C201.656 11.3875 201.278 11.8936 200.996 12.5448C200.723 13.1961 200.587 13.9618 200.587 14.8419C200.587 15.7045 200.723 16.4746 200.996 17.1522C201.269 17.8211 201.643 18.3536 202.118 18.7496C202.593 19.1369 203.135 19.3305 203.742 19.3305Z" fill="white"/>
<path d="M183.768 22.1029V8.01666H186.817V9.79889H187.372L186.355 11.0002C186.602 10.0761 187.139 9.31483 187.966 8.71635C188.802 8.10907 189.792 7.80543 190.936 7.80543C192.344 7.80543 193.453 8.27629 194.263 9.21801C195.073 10.1597 195.478 11.4183 195.478 12.9937V22.1029H192.362V13.5086C192.362 12.6021 192.124 11.8804 191.649 11.3435C191.174 10.7978 190.527 10.525 189.709 10.525C189.163 10.525 188.679 10.6482 188.256 10.8946C187.834 11.1411 187.499 11.4887 187.253 11.9376C187.007 12.3864 186.883 12.9145 186.883 13.5218V22.1029H183.768Z" fill="white"/>
<path d="M178.078 22.1029V8.01666H181.193V22.1029H178.078ZM173.84 10.7362V8.01666H181.193V10.7362H173.84ZM179.675 6.0496C179.094 6.0496 178.602 5.85158 178.197 5.45553C177.792 5.05067 177.589 4.55341 177.589 3.96373C177.589 3.37406 177.792 2.88119 178.197 2.48514C178.602 2.08029 179.094 1.87786 179.675 1.87786C180.265 1.87786 180.758 2.08029 181.154 2.48514C181.559 2.88119 181.761 3.37406 181.761 3.96373C181.761 4.55341 181.559 5.05067 181.154 5.45553C180.758 5.85158 180.265 6.0496 179.675 6.0496Z" fill="white"/>
<path d="M167.754 22.3141C166.742 22.3141 165.84 22.1073 165.048 21.6936C164.256 21.28 163.631 20.6947 163.173 19.9378C162.724 19.1809 162.5 18.2876 162.5 17.2579V3.7129H165.615V17.1522C165.615 17.8915 165.853 18.4768 166.328 18.9081C166.812 19.3393 167.406 19.555 168.111 19.555C168.612 19.555 169.109 19.4449 169.602 19.2249C170.104 19.0049 170.54 18.7364 170.909 18.4196L172.005 21.0732C171.415 21.4428 170.746 21.742 169.998 21.9709C169.25 22.1997 168.502 22.3141 167.754 22.3141ZM159.265 10.7362V8.01666H171.187V10.7362H159.265Z" fill="white"/>
<path d="M155.741 22.3141C154.684 22.3141 153.756 22.1029 152.955 21.6804C152.163 21.2492 151.542 20.6551 151.094 19.8982C150.653 19.1325 150.433 18.2524 150.433 17.2579V1.77225H153.549V17.0994C153.549 17.8123 153.773 18.402 154.222 18.8685C154.68 19.3261 155.292 19.555 156.057 19.555C156.568 19.555 157.078 19.4493 157.589 19.2381C158.108 19.0269 158.561 18.7673 158.949 18.4592L160.057 21.0996C159.459 21.4604 158.777 21.7552 158.011 21.9841C157.254 22.2041 156.497 22.3141 155.741 22.3141Z" fill="white"/>
<path d="M140.321 22.3141C139.326 22.3141 138.459 22.0985 137.72 21.6672C136.99 21.236 136.422 20.6331 136.017 19.8586C135.612 19.0841 135.41 18.1732 135.41 17.1258V8.01666H138.526V16.875C138.526 17.6847 138.754 18.336 139.212 18.8289C139.678 19.3129 140.299 19.5594 141.073 19.5682C141.61 19.577 142.081 19.4713 142.486 19.2513C142.9 19.0225 143.221 18.7056 143.45 18.3008C143.679 17.8959 143.793 17.4207 143.793 16.875V8.01666H146.909V17.9443C146.909 18.2612 147.041 18.5736 147.305 18.8817C147.577 19.1897 147.938 19.4361 148.387 19.621L147.278 22.3141C146.442 22.0149 145.738 21.6232 145.166 21.1392C144.603 20.6551 144.321 20.1666 144.321 19.6738L145.192 20.3603H143.595L145.1 19.3833C144.589 20.2987 143.899 21.0159 143.027 21.5352C142.156 22.0545 141.254 22.3141 140.321 22.3141Z" fill="white"/>
<path d="M127.74 22.3141C126.816 22.3141 125.957 22.1645 125.165 21.8653C124.373 21.5572 123.691 21.148 123.119 20.6375C122.547 20.127 122.133 19.5594 121.878 18.9345L124.532 17.8387C124.778 18.2876 125.187 18.71 125.759 19.1061C126.332 19.4933 127.031 19.687 127.859 19.687C128.316 19.687 128.743 19.621 129.139 19.4889C129.535 19.3569 129.856 19.1721 130.103 18.9345C130.349 18.6968 130.472 18.4152 130.472 18.0896C130.472 17.6847 130.274 17.3591 129.878 17.1126C129.491 16.8662 128.989 16.6506 128.373 16.4658C127.766 16.2809 127.115 16.0873 126.42 15.8849C125.733 15.6825 125.082 15.4228 124.466 15.106C123.858 14.7891 123.357 14.3755 122.961 13.865C122.573 13.3457 122.38 12.6857 122.38 11.8848C122.38 11.0134 122.622 10.2741 123.106 9.66687C123.59 9.05959 124.228 8.59753 125.02 8.28069C125.821 7.96385 126.697 7.80543 127.647 7.80543C128.871 7.80543 129.962 8.07386 130.921 8.61073C131.889 9.1388 132.594 9.84729 133.034 10.7362L130.393 11.832C130.164 11.4623 129.821 11.1367 129.364 10.855C128.906 10.5646 128.316 10.4194 127.594 10.4194C126.978 10.4194 126.433 10.5426 125.957 10.789C125.491 11.0354 125.258 11.4007 125.258 11.8848C125.258 12.2984 125.451 12.6329 125.839 12.8881C126.235 13.1345 126.741 13.3457 127.357 13.5218C127.973 13.6978 128.624 13.8826 129.311 14.0762C130.006 14.2699 130.662 14.5163 131.278 14.8155C131.894 15.106 132.396 15.4976 132.783 15.9905C133.17 16.4746 133.364 17.1126 133.364 17.9047C133.364 18.7849 133.108 19.5594 132.598 20.2282C132.087 20.8883 131.405 21.4032 130.552 21.7728C129.698 22.1337 128.761 22.3141 127.74 22.3141Z" fill="white"/>
<path d="M108.043 22.1029V8.01666H111.092V9.79889H111.647L110.63 11.0002C110.877 10.0761 111.414 9.31483 112.241 8.71635C113.077 8.10907 114.067 7.80543 115.211 7.80543C116.619 7.80543 117.728 8.27629 118.538 9.21801C119.348 10.1597 119.753 11.4183 119.753 12.9937V22.1029H116.637V13.5086C116.637 12.6021 116.399 11.8804 115.924 11.3435C115.449 10.7978 114.802 10.525 113.984 10.525C113.438 10.525 112.954 10.6482 112.531 10.8946C112.109 11.1411 111.774 11.4887 111.528 11.9376C111.282 12.3864 111.158 12.9145 111.158 13.5218V22.1029H108.043Z" fill="white"/>
<path d="M99.6069 22.3141C98.3307 22.3141 97.2173 22.0105 96.2668 21.4032C95.3163 20.7959 94.577 19.951 94.0489 18.8685C93.5209 17.7771 93.2568 16.5098 93.2568 15.0664C93.2568 13.6142 93.5209 12.3424 94.0489 11.2511C94.577 10.1597 95.3163 9.31043 96.2668 8.70315C97.2173 8.09587 98.3307 7.79223 99.6069 7.79223C100.883 7.79223 101.996 8.09587 102.947 8.70315C103.897 9.31043 104.637 10.1597 105.165 11.2511C105.693 12.3424 105.957 13.6142 105.957 15.0664C105.957 16.5098 105.693 17.7771 105.165 18.8685C104.637 19.951 103.897 20.7959 102.947 21.4032C101.996 22.0105 100.883 22.3141 99.6069 22.3141ZM99.6069 19.555C100.293 19.555 100.883 19.3701 101.376 19.0005C101.878 18.6308 102.26 18.1116 102.524 17.4427C102.788 16.765 102.92 15.9729 102.92 15.0664C102.92 14.1423 102.788 13.3457 102.524 12.6769C102.26 11.9992 101.878 11.4755 101.376 11.1059C100.883 10.7274 100.293 10.5382 99.6069 10.5382C98.9204 10.5382 98.3263 10.7274 97.8246 11.1059C97.3318 11.4755 96.9533 11.9992 96.6893 12.6769C96.4252 13.3457 96.2932 14.1423 96.2932 15.0664C96.2932 15.9729 96.4252 16.765 96.6893 17.4427C96.9533 18.1116 97.3318 18.6308 97.8246 19.0005C98.3263 19.3701 98.9204 19.555 99.6069 19.555Z" fill="white"/>
<path d="M86.9728 22.2613C85.5646 22.2613 84.3237 21.9577 83.2499 21.3504C82.185 20.7343 81.3489 19.8806 80.7416 18.7893C80.1431 17.6891 79.8439 16.4217 79.8439 14.9872C79.8439 13.5702 80.1387 12.3204 80.7284 11.2379C81.3181 10.1553 82.1366 9.31043 83.1839 8.70315C84.2401 8.09587 85.459 7.79223 86.8408 7.79223C87.6153 7.79223 88.425 7.93305 89.2699 8.21468C90.1148 8.48752 90.8321 8.85277 91.4218 9.31043L90.26 11.8452C89.8816 11.4755 89.3887 11.1675 88.7815 10.921C88.1742 10.6658 87.5757 10.5382 86.986 10.5382C86.1851 10.5382 85.4766 10.7274 84.8605 11.1059C84.2533 11.4843 83.7736 12.008 83.4216 12.6769C83.0783 13.3457 82.9067 14.1247 82.9067 15.0136C82.9067 15.8937 83.0783 16.6726 83.4216 17.3503C83.7736 18.028 84.2577 18.556 84.8737 18.9345C85.4898 19.3129 86.2027 19.5021 87.0124 19.5021C87.6549 19.5021 88.2798 19.3789 88.8871 19.1325C89.5031 18.8773 89.9784 18.5692 90.3129 18.2084L91.4614 20.7959C90.8893 21.2272 90.1896 21.5792 89.3623 21.8521C88.5438 22.1249 87.7473 22.2613 86.9728 22.2613Z" fill="white"/>
<path d="M62.312 22.1029L56.8597 8.01666H60.2658L62.6421 15.2248L63.7378 18.6572H63.8434L64.9392 15.2248L67.3419 8.01666H70.7215L65.2692 22.1029H62.312Z" fill="white"/>
<path d="M49.1367 22.3141C47.7813 22.3141 46.5888 22.0105 45.559 21.4032C44.5381 20.7959 43.7416 19.9466 43.1695 18.8553C42.5975 17.7639 42.3114 16.501 42.3114 15.0664C42.3114 13.6142 42.5799 12.3468 43.1167 11.2643C43.6624 10.1729 44.4237 9.32363 45.4006 8.71635C46.3776 8.10907 47.5129 7.80543 48.8067 7.80543C50.0036 7.80543 51.0554 8.07827 51.9619 8.62394C52.8772 9.16961 53.5857 9.93531 54.0874 10.921C54.5978 11.898 54.8531 13.0333 54.8531 14.3271C54.8531 14.6351 54.8399 14.9608 54.8134 15.304C54.787 15.6384 54.743 15.9289 54.6814 16.1753H44.7537V13.9838H51.8827C51.8827 13.2797 51.7463 12.6593 51.4734 12.1224C51.2094 11.5855 50.8397 11.1675 50.3645 10.8682C49.898 10.569 49.3567 10.4194 48.7407 10.4194C48.0278 10.4194 47.3985 10.613 46.8528 11.0002C46.3159 11.3875 45.8935 11.9244 45.5855 12.6109C45.2862 13.2973 45.1366 14.0938 45.1366 15.0004C45.1366 15.9333 45.3038 16.7518 45.6383 17.4559C45.9815 18.1512 46.4568 18.6924 47.064 19.0797C47.6713 19.4669 48.3754 19.6606 49.1763 19.6606C49.7836 19.6606 50.3909 19.5506 50.9982 19.3305C51.6142 19.1105 52.1379 18.8201 52.5692 18.4592L53.5989 20.9543C53.062 21.3504 52.3843 21.676 51.5658 21.9313C50.7473 22.1865 49.9376 22.3141 49.1367 22.3141Z" fill="white"/>
<path d="M39.0902 22.3141C38.3597 21.9885 37.7656 21.588 37.308 21.1128C36.8591 20.6287 36.5995 20.1534 36.5291 19.687L36.8855 19.9642H35.8294L36.3839 18.3536V10.9078L35.803 9.48205H36.0934V1.77225H39.1958V17.7595C39.1958 18.1732 39.2838 18.5516 39.4599 18.8949C39.6447 19.2381 39.8867 19.4801 40.186 19.621L39.0902 22.3141ZM32.3441 22.3141C31.2528 22.3141 30.2979 22.0149 29.4794 21.4164C28.6609 20.8179 28.0272 19.9774 27.5783 18.8949C27.1295 17.8035 26.905 16.5186 26.905 15.04C26.905 13.579 27.1295 12.3028 27.5783 11.2115C28.036 10.1201 28.6741 9.27962 29.4926 8.68994C30.3199 8.09147 31.288 7.79223 32.3969 7.79223C33.4795 7.79223 34.4212 8.09147 35.2221 8.68994C36.0318 9.28842 36.6611 10.1333 37.11 11.2247C37.5588 12.3072 37.7832 13.579 37.7832 15.04C37.7832 16.5098 37.5544 17.7903 37.0968 18.8817C36.6479 19.9642 36.0186 20.8091 35.2089 21.4164C34.3992 22.0149 33.4443 22.3141 32.3441 22.3141ZM33.0834 19.621C33.7259 19.621 34.2848 19.4317 34.76 19.0533C35.2441 18.666 35.6182 18.1336 35.8822 17.4559C36.1462 16.7694 36.2782 15.9641 36.2782 15.04C36.2782 14.1158 36.1462 13.3149 35.8822 12.6373C35.6182 11.9508 35.2485 11.4227 34.7732 11.0531C34.3068 10.6746 33.7611 10.4854 33.1362 10.4854C32.4938 10.4854 31.9305 10.6746 31.4464 11.0531C30.9712 11.4315 30.6015 11.964 30.3375 12.6505C30.0734 13.3281 29.9414 14.1247 29.9414 15.04C29.9414 15.9641 30.069 16.7694 30.3243 17.4559C30.5883 18.1336 30.9536 18.666 31.42 19.0533C31.8953 19.4317 32.4497 19.621 33.0834 19.621Z" fill="white"/>
<path d="M20.7003 14.0762C20.7003 19.7925 16.0664 24.4264 10.3501 24.4264C4.63392 24.4264 0 19.7925 0 14.0762C0 8.36002 4.63392 3.7261 10.3501 3.7261C16.0664 3.7261 20.7003 8.36002 20.7003 14.0762ZM1.94767 14.0762C1.94767 18.7168 5.70958 22.4787 10.3501 22.4787C14.9907 22.4787 18.7526 18.7168 18.7526 14.0762C18.7526 9.43569 14.9907 5.67377 10.3501 5.67377C5.70958 5.67377 1.94767 9.43569 1.94767 14.0762Z" fill="url(#paint0_linear_433_177)"/>
<path d="M8.44922 9.85172L12.7794 14.1819L8.44922 18.512" stroke="url(#paint1_linear_433_177)" stroke-width="1.26736"/>
<defs>
<linearGradient id="paint0_linear_433_177" x1="6.84308e-08" y1="13.337" x2="20.7003" y2="13.5482" gradientUnits="userSpaceOnUse">
<stop stop-color="#129A8E"/>
<stop offset="1" stop-color="#19CA5E"/>
</linearGradient>
<linearGradient id="paint1_linear_433_177" x1="8.13238" y1="14.2875" x2="13.8355" y2="14.2875" gradientUnits="userSpaceOnUse">
<stop stop-color="#139E8B"/>
<stop offset="1" stop-color="#19C960"/>
</linearGradient>
</defs>
</svg>
